<svg width="22" height="29" viewBox="0 0 22 29" fill="none" xmlns="http://www.w3.org/2000/svg">
<path d="M14.0553 5.39538C15.539 5.39538 16.7529 4.18142 16.7529 2.69769C16.7529 1.21396 15.539 0 14.0553 0C12.5715 0 11.3576 1.21396 11.3576 2.69769C11.3576 4.18142 12.5715 5.39538 14.0553 5.39538ZM9.77941 21.5815L10.5483 18.2094L13.3808 20.9071V27.6513C13.3808 28.3932 13.9878 29.0002 14.7297 29.0002C15.4715 29.0002 16.0785 28.3932 16.0785 27.6513V20.0438C16.0785 19.302 15.7818 18.6006 15.2422 18.088L13.2459 16.1861L14.0553 12.1396C15.4985 13.8122 17.5892 15.0126 19.9362 15.3903C20.7455 15.5117 21.4739 14.8643 21.4739 14.0415C21.4739 13.3805 20.9883 12.8275 20.3274 12.7196C18.2771 12.3824 16.5776 11.1684 15.6739 9.5768L14.325 7.41865C13.7855 6.60934 12.9762 6.0698 12.032 6.0698C11.6273 6.0698 11.3576 6.20469 10.9529 6.20469L5.58451 8.47075C4.58636 8.90238 3.93892 9.87354 3.93892 10.9661V14.1629C3.93892 14.9047 4.5459 15.5117 5.28776 15.5117C6.02963 15.5117 6.63661 14.9047 6.63661 14.1629V10.9256L9.06453 9.98145L6.90638 20.9071L1.6189 19.828C0.890529 19.6796 0.175641 20.1517 0.0272681 20.8801V20.9341C-0.121105 21.6624 0.350991 22.3773 1.07937 22.5257L6.62312 23.6318C8.05289 23.915 9.45569 23.0113 9.77941 21.5815Z" fill="black"/>
</svg>
